<svg width="46" height="65" viewBox="0 0 46 65" fill="none" xmlns="http://www.w3.org/2000/svg">
<path d="M4.16571 59.7793L0 12.774H45.7746L41.6044 59.7719L22.8592 65L4.16571 59.7793Z" fill="#E53D20"/>
<path d="M22.8873 61.0039L38.0343 56.7793L41.598 16.6174H22.8873V61.0039Z" fill="#F15123"/>
<path d="M22.8873 34.0511H15.3044L14.7806 28.1476H22.8873V22.3825H22.8675H8.51785L8.65507 23.9292L10.0635 39.8159H22.8873V34.0511Z" fill="#EDEDED"/>
<path d="M22.8873 49.0232L22.8622 49.03L16.4802 47.2962L16.072 42.6984H12.9709H10.3195L11.1224 51.7503L22.8609 55.0286L22.8873 55.0212V49.0232Z" fill="#EDEDED"/>
<path d="M4.25882 4.1008e-05H7.17105V2.89456H9.83493V4.1008e-05H12.7473V8.76538H9.83505V5.83029H7.17118V8.76538H4.25903V4.1008e-05H4.25882Z" fill="#100F0D"/>
<path d="M16.5769 2.90678H14.0131V4.1008e-05H22.0541V2.90678H19.4892V8.76538H16.5771V2.90678H16.5769Z" fill="#100F0D"/>
<path d="M23.3303 4.1008e-05H26.3669L28.2348 3.0799L30.1008 4.1008e-05H33.1386V8.76538H30.2384V4.42079L28.2348 7.53739H28.1848L26.1798 4.42079V8.76538H23.3303V4.1008e-05Z" fill="#100F0D"/>
<path d="M34.588 4.1008e-05H37.501V5.8681H41.5963V8.76538H34.588V4.1008e-05Z" fill="#100F0D"/>
<path d="M22.8675 34.0511V39.8159H29.9239L29.2588 47.2927L22.8675 49.0282V55.0259L34.6153 51.7504L34.7014 50.7765L36.0481 35.5991L36.1879 34.0511H34.6437H22.8675Z" fill="white"/>
<path d="M22.8675 22.3827V28.1477H36.691H36.7093L36.8243 26.8518L37.0854 23.9293L37.2224 22.3827H22.8675Z" fill="white"/>
</svg>
