<!DOCTYPE svg PUBLIC "-//W3C//DTD SVG 20010904//EN" "http://www.w3.org/TR/2001/REC-SVG-20010904/DTD/svg10.dtd">
<svg version="1.0" xmlns="http://www.w3.org/2000/svg" width="21px" height="20px" viewBox="0 0 210 200" preserveAspectRatio="xMidYMid meet">
<g id="layer101" fill="#ff5656" stroke="none">
 <path d="M26 174 c-37 -38 -37 -106 1 -146 23 -24 35 -28 81 -28 71 0 102 31 102 101 0 67 -34 99 -105 99 -43 0 -57 -5 -79 -26z m118 -5 c28 -13 47 -57 39 -88 -5 -18 -10 -13 -37 31 -17 28 -35 53 -41 55 -10 3 -55 -59 -55 -77 0 -18 25 -11 38 11 13 21 15 20 43 -22 l29 -44 -31 -9 c-38 -12 -76 6 -98 45 -12 22 -12 32 -2 56 19 47 66 64 115 42z"/>
 </g>

</svg>