<svg width="20" height="20" viewBox="0 0 20 20" fill="none" xmlns="http://www.w3.org/2000/svg">
<path d="M-7.46167e-07 2.92969L-1.28061e-07 17.0703C-5.74539e-08 18.6856 1.31439 20 2.92969 20L17.0703 20C18.6856 20 20 18.6856 20 17.0703L20 11.1719L12.9297 11.1719L12.9297 13.5156L9.41406 13.5156L9.41406 11.1719L7.03125 11.1719C5.09262 11.1719 3.51562 9.59488 3.51562 7.65625L3.51562 4.10156L7.03125 4.10156L7.03125 7.65625L9.41406 7.65625L9.41406 4.10156L12.9297 4.6875L12.9297 7.65625L20 7.65625L20 2.92969C20 1.31439 18.6856 -8.16774e-07 17.0703 -7.46167e-07L2.92969 -1.28061e-07C1.31439 -5.74539e-08 -8.16774e-07 1.31439 -7.46167e-07 2.92969Z" fill="black"/>
</svg>
